HIERARCHY
ROOT Hip
{
	OFFSET -0.196426 0.310606 0.158975
	CHANNELS 6 Xposition Yposition Zposition Xrotation Yrotation Zrotation
	JOINT LowerSpine
	{
		OFFSET -0.023841 0.135059 0.268999
		CHANNELS 6 Xposition Yposition Zposition Xrotation Yrotation Zrotation
		JOINT MiddleSpine
		{
			OFFSET -0.018036 -0.028389 0.234637
			CHANNELS 3 Xrotation Yrotation Zrotation
			JOINT Chest
			{
				OFFSET -0.024091 0.037135 0.295503
				CHANNELS 3 Xrotation Yrotation Zrotation
				JOINT Neck
				{
					OFFSET -0.051354 -0.035883 0.657357
					CHANNELS 6 Xposition Yposition Zposition Xrotation Yrotation Zrotation
					JOINT Head
					{
						OFFSET -0.026351 -0.128343 0.363488
						CHANNELS 3 Xrotation Yrotation Zrotation
						End Site
						{
							OFFSET -0.004101 -0.005503 0.053125
						}
					}
				}
				JOINT LClavicle
				{
					OFFSET 0.015332 -0.241294 0.624254
					CHANNELS 6 Xposition Yposition Zposition Xrotation Yrotation Zrotation
					JOINT LShoulder
					{
						OFFSET 0.338625 0.147377 0.129065
						CHANNELS 3 Xrotation Yrotation Zrotation
						JOINT LForearm
						{
							OFFSET 0.824499 0.022925 0.062850
							CHANNELS 3 Xrotation Yrotation Zrotation
							JOINT LHand
							{
								OFFSET 0.687508 0.016958 0.056721
								CHANNELS 3 Xrotation Yrotation Zrotation
								JOINT LFinger1
								{
									OFFSET 0.266567 -0.070745 0.039057
									CHANNELS 6 Xposition Yposition Zposition Xrotation Yrotation Zrotation
									JOINT LFinger11
									{
										OFFSET 0.102023 -0.013913 -0.017621
										CHANNELS 3 Xrotation Yrotation Zrotation
										JOINT LFinger12
										{
											OFFSET 0.069650 -0.009502 -0.012034
											CHANNELS 3 Xrotation Yrotation Zrotation
											End Site
											{
												OFFSET 0.051925 -0.006143 -0.011641
											}
										}
									}
								}
								JOINT LFinger2
								{
									OFFSET 0.268605 -0.003315 0.047808
									CHANNELS 6 Xposition Yposition Zposition Xrotation Yrotation Zrotation
									JOINT LFinger21
									{
										OFFSET 0.123236 0.003031 0.010152
										CHANNELS 3 Xrotation Yrotation Zrotation
										JOINT LFinger22
										{
											OFFSET 0.068308 0.001691 0.005647
											CHANNELS 3 Xrotation Yrotation Zrotation
											End Site
											{
												OFFSET 0.053551 0.001210 0.000458
											}
										}
									}
								}
								JOINT LFinger3
								{
									OFFSET 0.253505 0.064209 0.042558
									CHANNELS 6 Xposition Yposition Zposition Xrotation Yrotation Zrotation
									JOINT LFinger31
									{
										OFFSET 0.112133 0.009534 0.003707
										CHANNELS 3 Xrotation Yrotation Zrotation
										JOINT LFinger32
										{
											OFFSET 0.063897 0.005445 0.002133
											CHANNELS 3 Xrotation Yrotation Zrotation
											End Site
											{
												OFFSET 0.053376 0.003980 -0.002124
											}
										}
									}
								}
								JOINT LFinger4
								{
									OFFSET 0.236750 0.110617 0.008292
									CHANNELS 6 Xposition Yposition Zposition Xrotation Yrotation Zrotation
									JOINT LFinger41
									{
										OFFSET 0.069454 0.021353 -0.007512
										CHANNELS 3 Xrotation Yrotation Zrotation
										JOINT LFinger42
										{
											OFFSET 0.050930 0.015666 -0.005491
											CHANNELS 3 Xrotation Yrotation Zrotation
											End Site
											{
												OFFSET 0.051055 0.013499 -0.008974
											}
										}
									}
								}
								JOINT LFinger0
								{
									OFFSET 0.059407 -0.037723 -0.040263
									CHANNELS 6 Xposition Yposition Zposition Xrotation Yrotation Zrotation
									JOINT LFinger01
									{
										OFFSET 0.107181 -0.073029 -0.031047
										CHANNELS 3 Xrotation Yrotation Zrotation
										JOINT LFinger02
										{
											OFFSET 0.070676 -0.045678 -0.022267
											CHANNELS 3 Xrotation Yrotation Zrotation
											End Site
											{
												OFFSET 0.044220 -0.027162 -0.013275
											}
										}
									}
								}
							}
						}
					}
				}
				JOINT RClavicle
				{
					OFFSET -0.104252 -0.243548 0.614788
					CHANNELS 6 Xposition Yposition Zposition Xrotation Yrotation Zrotation
					JOINT RShoulder
					{
						OFFSET -0.360058 0.134212 0.073782
						CHANNELS 3 Xrotation Yrotation Zrotation
						JOINT RForearm
						{
							OFFSET -0.824397 -0.008202 -0.067661
							CHANNELS 3 Xrotation Yrotation Zrotation
							JOINT RHand
							{
								OFFSET -0.688020 -0.009008 -0.052152
								CHANNELS 3 Xrotation Yrotation Zrotation
								JOINT RFinger1
								{
									OFFSET -0.266549 -0.080810 -0.003138
									CHANNELS 6 Xposition Yposition Zposition Xrotation Yrotation Zrotation
									JOINT RFinger11
									{
										OFFSET -0.097388 -0.017677 -0.033404
										CHANNELS 3 Xrotation Yrotation Zrotation
										JOINT RFinger12
										{
											OFFSET -0.066485 -0.012071 -0.022812
											CHANNELS 3 Xrotation Yrotation Zrotation
											End Site
											{
												OFFSET -0.049180 -0.008052 -0.019643
											}
										}
									}
								}
								JOINT RFinger2
								{
									OFFSET -0.272465 -0.013529 0.004983
									CHANNELS 6 Xposition Yposition Zposition Xrotation Yrotation Zrotation
									JOINT RFinger21
									{
										OFFSET -0.123327 -0.001624 -0.009364
										CHANNELS 3 Xrotation Yrotation Zrotation
										JOINT RFinger22
										{
											OFFSET -0.068362 -0.000886 -0.005170
											CHANNELS 3 Xrotation Yrotation Zrotation
											End Site
											{
												OFFSET -0.052964 -0.000800 -0.007973
											}
										}
									}
								}
								JOINT RFinger3
								{
									OFFSET -0.259272 0.054529 0.001970
									CHANNELS 6 Xposition Yposition Zposition Xrotation Yrotation Zrotation
									JOINT RFinger31
									{
										OFFSET -0.111598 0.005311 -0.014002
										CHANNELS 3 Xrotation Yrotation Zrotation
										JOINT RFinger32
										{
											OFFSET -0.063596 0.003038 -0.007957
											CHANNELS 3 Xrotation Yrotation Zrotation
											End Site
											{
												OFFSET -0.052490 0.001982 -0.010503
											}
										}
									}
								}
								JOINT RFinger4
								{
									OFFSET -0.239088 0.101635 -0.029372
									CHANNELS 6 Xposition Yposition Zposition Xrotation Yrotation Zrotation
									JOINT RFinger41
									{
										OFFSET -0.068160 0.018755 -0.018400
										CHANNELS 3 Xrotation Yrotation Zrotation
										JOINT RFinger42
										{
											OFFSET -0.049984 0.013760 -0.013476
											CHANNELS 3 Xrotation Yrotation Zrotation
											End Site
											{
												OFFSET -0.049479 0.011602 -0.016931
											}
										}
									}
								}
								JOINT RFinger0
								{
									OFFSET -0.050879 -0.039803 -0.048990
									CHANNELS 6 Xposition Yposition Zposition Xrotation Yrotation Zrotation
									JOINT RFinger01
									{
										OFFSET -0.098149 -0.076908 -0.047305
										CHANNELS 3 Xrotation Yrotation Zrotation
										JOINT RFinger02
										{
											OFFSET -0.064529 -0.048231 -0.032966
											CHANNELS 3 Xrotation Yrotation Zrotation
											End Site
											{
												OFFSET -0.040531 -0.028763 -0.019983
											}
										}
									}
								}
							}
						}
					}
				}
			}
		}
	}
	JOINT RThigh
	{
		OFFSET -0.315444 0.010757 0.094209
		CHANNELS 6 Xposition Yposition Zposition Xrotation Yrotation Zrotation
		JOINT RShin
		{
			OFFSET 0.071212 0.087726 -1.202137
			CHANNELS 3 Xrotation Yrotation Zrotation
			JOINT RFoot
			{
				OFFSET 0.091663 0.086552 -1.178708
				CHANNELS 3 Xrotation Yrotation Zrotation
				JOINT RToe
				{
					OFFSET 0.016741 -0.262163 -0.148981
					CHANNELS 3 Xrotation Yrotation Zrotation
					End Site
					{
						OFFSET 0.001311 -0.053414 -0.003820
					}
				}
			}
		}
	}
	JOINT LThigh
	{
		OFFSET 0.296070 0.022303 0.142620
		CHANNELS 6 Xposition Yposition Zposition Xrotation Yrotation Zrotation
		JOINT LShin
		{
			OFFSET 0.115488 0.088562 -1.198641
			CHANNELS 3 Xrotation Yrotation Zrotation
			JOINT LFoot
			{
				OFFSET 0.091663 0.086551 -1.178707
				CHANNELS 3 Xrotation Yrotation Zrotation
				JOINT LToe
				{
					OFFSET 0.016741 -0.262166 -0.148982
					CHANNELS 3 Xrotation Yrotation Zrotation
					End Site
					{
						OFFSET 0.001311 -0.053414 -0.003820
					}
				}
			}
		}
	}
}
MOTION
Frames: 5
Frame Time: 0.041667
-0.377003 -0.067513 2.286844 6.137021 -18.176665 -82.806263 -0.023841 0.135059 0.268999 -0.000001 -0.000011 0.000009 -0.808227 3.564490 -1.139653 -7.469445 10.992689 -1.104343 -0.051354 -0.035883 0.657358 -7.171058 6.292056 2.154192 -2.220616 2.528603 0.140635 0.015332 -0.241294 0.624254 -0.034559 1.361472 0.097793 25.827882 -7.862710 -64.588803 7.258258 0.853756 -71.542946 7.160188 -1.778920 -14.305121 0.266567 -0.070746 0.039057 0.000009 -0.000004 0.000009 -0.000003 -0.000004 -0.000001 0.000002 0.000003 0.000003 0.268605 -0.003315 0.047808 0.000003 0.000008 0.000003 -0.000000 0.000001 0.000004 -0.000002 0.000007 -0.000002 0.253505 0.064208 0.042557 0.000002 0.000004 0.000006 -0.000005 -0.000003 0.000001 -0.000002 0.000002 -0.000001 0.236750 0.110617 0.008291 0.000004 0.000006 0.000003 -0.000003 0.000003 0.000001 -0.000001 0.000002 0.000007 0.059407 -0.037724 -0.040263 0.000016 0.000011 -0.000013 -0.000008 0.000001 0.000003 -0.000001 -0.000001 0.000000 -0.104252 -0.243549 0.614789 0.204605 -11.740640 -0.821506 71.808716 -46.784634 36.588828 -1.602915 -2.763861 30.738751 -0.000007 -0.000012 -0.000006 -0.266549 -0.080809 -0.003138 0.000008 0.000003 -0.000008 0.000002 -0.000005 0.000007 -0.000003 0.000019 -0.000008 -0.272465 -0.013529 0.004984 0.000006 0.000005 -0.000003 -0.000003 -0.000007 -0.000003 0.000005 0.000009 -0.000002 -0.259271 0.054529 0.001970 0.000008 -0.000000 -0.000004 0.000002 0.000002 0.000000 -0.000001 -0.000000 -0.000005 -0.239088 0.101635 -0.029373 0.000018 0.000010 -0.000001 0.000006 -0.000001 0.000006 -0.000008 -0.000013 0.000009 -0.050879 -0.039803 -0.048990 0.000015 0.000004 -0.000000 -0.000008 -0.000007 -0.000005 -0.000005 -0.000012 0.000017 -0.353504 -0.022972 0.209823 -29.249431 -13.500015 -0.779869 24.829549 0.873877 1.805234 -0.292649 2.839044 -5.023288 -2.761614 -0.046859 -0.219736 0.263543 0.025975 0.241400 -38.170184 -4.815793 -3.403459 47.543741 2.274170 2.997305 -0.985082 0.638703 -1.211522 -15.898754 -0.122903 -1.283176 
-0.402691 -0.110479 2.288400 3.491067 -17.214054 -95.960934 -0.023841 0.135059 0.268999 -0.000002 -0.000011 0.000009 -0.899492 3.401856 -0.973474 -8.792055 9.684206 0.453177 -0.051354 -0.035883 0.657358 -7.186659 6.361025 2.183606 -2.167612 2.361951 0.122959 0.015333 -0.241294 0.624254 -0.036434 1.432767 0.102949 27.976035 -9.610199 -59.098307 8.138781 0.261728 -81.260741 7.160194 -1.778922 -14.305074 0.266567 -0.070746 0.039057 0.000007 -0.000003 0.000003 0.000001 -0.000006 -0.000001 0.000005 0.000003 -0.000000 0.268605 -0.003315 0.047808 0.000001 0.000009 0.000001 -0.000002 0.000001 0.000003 -0.000001 0.000007 -0.000000 0.253505 0.064208 0.042557 0.000006 0.000003 -0.000001 -0.000002 -0.000004 -0.000001 0.000002 0.000001 0.000000 0.236750 0.110617 0.008291 0.000004 0.000006 -0.000000 0.000002 0.000004 0.000006 0.000001 0.000005 0.000003 0.059407 -0.037724 -0.040263 0.000015 0.000012 -0.000017 -0.000012 -0.000001 0.000001 -0.000009 0.000000 -0.000000 -0.104253 -0.243548 0.614789 0.206124 -11.888027 -0.831732 71.195638 -45.084310 37.664033 -1.566370 -2.626307 29.383508 -0.000002 -0.000008 -0.000004 -0.266549 -0.080809 -0.003138 0.000004 0.000002 -0.000008 0.000009 -0.000001 0.000009 0.000002 0.000022 -0.000007 -0.272465 -0.013529 0.004984 0.000008 0.000008 -0.000006 0.000002 -0.000003 -0.000008 0.000008 0.000009 -0.000003 -0.259271 0.054529 0.001970 0.000009 0.000001 -0.000004 -0.000001 0.000000 0.000000 -0.000005 0.000001 -0.000006 -0.239087 0.101635 -0.029373 0.000013 0.000007 -0.000003 0.000003 0.000002 0.000004 -0.000010 -0.000017 0.000008 -0.050878 -0.039803 -0.048990 0.000015 0.000009 -0.000001 -0.000003 -0.000007 -0.000005 -0.000002 -0.000014 0.000022 -0.351856 -0.023925 0.199297 -24.373716 -14.551298 0.825226 22.916275 0.779476 1.681245 -2.687514 4.602480 -8.011774 -2.344178 -0.040458 -0.186381 0.263016 0.027286 0.244409 -34.574561 -6.387602 -0.404538 45.856575 2.154956 2.928744 -0.973357 0.692579 -1.300337 -16.529302 -0.120403 -1.334399 
-0.426895 -0.143908 2.300944 1.236756 -16.087631 -107.836632 -0.023841 0.135059 0.268999 -0.000002 -0.000011 0.000009 -0.978156 3.241160 -0.809115 -9.132529 9.139256 0.954395 -0.051354 -0.035883 0.657358 -7.216903 6.386610 2.193698 -2.112117 2.195229 0.105585 0.015333 -0.241294 0.624255 -0.038035 1.493537 0.107332 29.537423 -10.389861 -54.397109 8.965749 -0.537649 -91.785291 7.160183 -1.778920 -14.305023 0.266566 -0.070746 0.039057 0.000006 -0.000000 0.000005 -0.000001 -0.000006 -0.000001 0.000005 0.000001 0.000002 0.268605 -0.003315 0.047808 0.000001 0.000009 0.000001 0.000003 0.000001 0.000004 -0.000000 0.000008 -0.000001 0.253504 0.064208 0.042557 0.000004 0.000004 0.000000 -0.000002 -0.000005 -0.000001 0.000002 0.000002 -0.000000 0.236750 0.110617 0.008291 0.000007 0.000005 -0.000000 -0.000006 0.000004 0.000003 0.000002 0.000004 0.000008 0.059407 -0.037723 -0.040263 0.000015 0.000011 -0.000013 -0.000009 0.000001 -0.000000 -0.000003 0.000001 -0.000005 -0.104252 -0.243549 0.614789 0.207569 -12.030159 -0.841594 70.980658 -42.560674 39.983852 -1.532624 -2.520210 28.331862 -0.000002 -0.000011 -0.000005 -0.266549 -0.080809 -0.003138 0.000003 0.000002 -0.000006 -0.000002 -0.000002 0.000006 -0.000002 0.000020 -0.000009 -0.272466 -0.013528 0.004984 0.000009 0.000007 -0.000000 -0.000000 -0.000005 -0.000004 0.000005 0.000007 -0.000002 -0.259271 0.054529 0.001970 0.000006 0.000000 -0.000001 0.000000 0.000000 0.000001 0.000005 -0.000002 -0.000001 -0.239088 0.101635 -0.029373 0.000008 0.000006 0.000000 0.000002 -0.000003 0.000002 -0.000008 -0.000015 0.000009 -0.050879 -0.039802 -0.048990 0.000016 0.000003 0.000002 -0.000006 -0.000007 -0.000004 -0.000009 -0.000014 0.000018 -0.349729 -0.024940 0.185616 -20.792366 -14.771585 2.170137 22.214651 0.745909 1.635000 -2.980923 5.058917 -8.725074 -3.918982 -0.063330 -0.312447 0.262491 0.028596 0.247418 -30.960500 -7.110390 1.784425 44.150835 2.036533 2.855893 -0.788023 0.656266 -1.223710 -17.592429 -0.114911 -1.420695 
-0.449043 -0.169296 2.319978 -0.430330 -15.021623 -117.933735 -0.023841 0.135059 0.268999 -0.000002 -0.000011 0.000009 -1.043689 3.083268 -0.648082 -8.799562 8.573539 1.220050 -0.051354 -0.035883 0.657357 -7.238932 6.397985 2.198830 -2.054309 2.028942 0.088568 0.015333 -0.241294 0.624254 -0.039376 1.544184 0.110985 30.508908 -10.942472 -51.154774 9.599930 -1.418233 -101.704618 7.160187 -1.778920 -14.304965 0.266567 -0.070746 0.039056 0.000006 -0.000002 0.000004 0.000006 -0.000007 0.000002 0.000002 -0.000001 0.000002 0.268605 -0.003315 0.047808 -0.000001 0.000009 0.000002 -0.000001 0.000000 0.000003 -0.000000 0.000008 -0.000004 0.253505 0.064208 0.042557 -0.000001 0.000003 0.000002 -0.000004 -0.000003 0.000002 0.000001 0.000001 -0.000001 0.236750 0.110617 0.008291 0.000002 0.000004 0.000002 0.000001 0.000006 0.000006 -0.000002 -0.000000 0.000006 0.059407 -0.037723 -0.040263 0.000012 0.000009 -0.000015 -0.000009 0.000002 -0.000003 -0.000001 -0.000004 -0.000000 -0.104252 -0.243549 0.614789 0.208948 -12.167892 -0.851162 70.948344 -39.887174 41.915928 -1.551652 -2.576932 28.894443 -0.000004 -0.000006 -0.000006 -0.266549 -0.080809 -0.003138 0.000007 0.000004 -0.000010 -0.000004 -0.000001 0.000007 -0.000004 0.000019 -0.000010 -0.272465 -0.013528 0.004984 0.000006 0.000008 -0.000004 -0.000003 -0.000005 -0.000005 0.000004 0.000006 -0.000004 -0.259271 0.054529 0.001970 0.000007 -0.000000 -0.000004 0.000001 -0.000002 0.000002 0.000002 -0.000000 -0.000005 -0.239087 0.101635 -0.029373 0.000007 0.000005 -0.000001 0.000005 -0.000001 -0.000000 -0.000007 -0.000014 0.000009 -0.050879 -0.039803 -0.048990 0.000012 0.000006 -0.000000 -0.000009 -0.000011 -0.000004 -0.000004 -0.000019 0.000021 -0.347276 -0.025948 0.170179 -18.687235 -14.682825 3.313585 22.280950 0.749054 1.639388 -1.022392 4.840738 -8.452061 -7.232216 -0.100093 -0.579449 0.261965 0.029905 0.250424 -28.081653 -7.153558 2.501884 43.233349 1.973748 2.815261 -0.780102 0.501567 -0.956335 -19.022323 -0.104998 -1.536571 
-0.467584 -0.193663 2.337362 -1.677784 -13.961436 -126.732493 -0.023841 0.135059 0.268999 0.000001 -0.000009 0.000010 -1.095902 2.929028 -0.491773 -7.868447 7.646175 1.721394 -0.051354 -0.035883 0.657358 -7.251798 6.427440 2.214254 -1.994423 1.863637 0.071975 0.015332 -0.241294 0.624255 -0.040475 1.585382 0.113958 31.110709 -11.576588 -48.728352 10.032464 -2.291322 -110.605058 7.160174 -1.778921 -14.304907 0.266566 -0.070746 0.039056 0.000008 -0.000004 0.000002 0.000002 -0.000005 -0.000002 0.000003 0.000003 0.000002 0.268605 -0.003315 0.047808 0.000002 0.000006 0.000004 -0.000001 0.000003 0.000005 0.000001 0.000008 -0.000002 0.253504 0.064208 0.042557 0.000004 0.000003 0.000005 -0.000002 -0.000005 0.000002 0.000005 0.000000 0.000002 0.236750 0.110617 0.008291 0.000003 0.000004 0.000007 -0.000001 0.000003 0.000003 -0.000000 0.000003 0.000002 0.059407 -0.037724 -0.040263 0.000015 0.000007 -0.000013 -0.000004 0.000003 -0.000004 -0.000003 -0.000004 0.000003 -0.104253 -0.243548 0.614790 0.210255 -12.302119 -0.860465 70.810586 -37.440283 42.778916 -1.604412 -2.765000 30.751035 -0.000004 -0.000006 -0.000005 -0.266549 -0.080809 -0.003138 0.000005 0.000004 -0.000007 0.000004 -0.000002 0.000007 0.000004 0.000018 -0.000006 -0.272465 -0.013528 0.004984 0.000007 0.000009 -0.000003 -0.000001 -0.000005 -0.000006 0.000004 0.000005 -0.000004 -0.259271 0.054529 0.001970 0.000005 0.000001 -0.000005 -0.000002 -0.000002 0.000001 0.000002 -0.000001 -0.000003 -0.239088 0.101635 -0.029373 0.000007 0.000008 -0.000003 0.000003 -0.000000 0.000004 -0.000009 -0.000015 0.000008 -0.050879 -0.039802 -0.048990 0.000015 0.000009 0.000003 -0.000008 -0.000006 -0.000008 -0.000002 -0.000012 0.000019 -0.344706 -0.026864 0.154762 -17.523262 -14.443289 4.336074 22.873892 0.777433 1.678461 1.202642 4.577664 -8.131113 -10.500798 -0.121180 -0.844483 0.261440 0.031211 0.253424 -25.724055 -6.684711 2.693005 42.612673 1.931647 2.787206 -0.987270 0.411715 -0.818533 -20.217935 -0.094495 -1.633248 
